<svg width="34" height="33" viewBox="0 0 34 33" fill="none" xmlns="http://www.w3.org/2000/svg">
<path d="M11.0825 11.4002C16.3289 13.4513 17.3142 12.7316 22.8325 11.1169C28.3055 14.6878 28.7011 18.8658 28.5315 24.6942C21.537 28.795 15.6353 29.3925 5.37781 25.3211C5.9425 21.7545 4.34076 15.3284 11.0825 11.4002Z" fill="white" fill-opacity="0.991597" stroke="black" stroke-width="0.774071" stroke-linecap="round" stroke-linejoin="round"/>
<path fill-rule="evenodd" clip-rule="evenodd" d="M22.5174 8.27224C22.5174 8.9834 22.3758 9.6876 22.1007 10.3446C21.8256 11.0017 21.4225 11.5987 20.9142 12.1015C20.4059 12.6044 19.8025 13.0033 19.1384 13.2754C18.4743 13.5476 17.7625 13.6877 17.0437 13.6877C16.3249 13.6877 15.6131 13.5476 14.949 13.2754C14.285 13.0033 13.6815 12.6044 13.1733 12.1015C12.665 11.5987 12.2618 11.0017 11.9867 10.3446C11.7116 9.6876 11.5701 8.9834 11.5701 8.27224C11.5701 7.56107 11.7116 6.85687 11.9867 6.19984C12.2618 5.54281 12.665 4.94582 13.1733 4.44295C13.6815 3.94008 14.285 3.54119 14.949 3.26904C15.6131 2.99689 16.3249 2.85681 17.0437 2.85681C17.7625 2.85681 18.4743 2.99689 19.1384 3.26904C19.8025 3.54119 20.4059 3.94008 20.9142 4.44295C21.4225 4.94582 21.8256 5.54281 22.1007 6.19984C22.3758 6.85687 22.5174 7.56107 22.5174 8.27224Z" fill="white" stroke="black" stroke-width="0.758202"/>
</svg>
